<svg viewBox="0 0 447 336" fill="none" xmlns="http://www.w3.org/2000/svg">
<style>
    @media (prefers-color-scheme: dark) {
        #path1 {
            fill: white;
        }
        #path2 {
            stroke: white;
        }
    }
</style>
<path id="path1" fill-rule="evenodd" clip-rule="evenodd" d="M218 5C218 3 220.844 1.00001 223.5 1C226.156 0.999986 229 3 229 5V24H253C255 24 257 26.8441 257 29.5C257 32.1559 255 35 253 35H229V79.5C266 195.5 357 277 434 307V285C434 283 436.95 280 440 280C443.05 280 446 283 446 285V330C446 332 443.55 334.5 440.5 334.5C437.45 334.5 434 332 434 330V320L370 287V323H378C380 323 383 325.821 383 329C383 332 380 335 378 335H68.9999C67 335 63.5 332 63.5 329C63.5 325.821 67 323 68.9999 323H77.9999V287L13 320V330C13 332 10.0501 335 6.99999 335C3.9499 335 1 332 1 330V285C1 283 3.9499 280 6.99999 280C10.0501 280 13 283 13 285V307C86 280 186.5 189.5 217.5 79.5V35H194C192 35 190 32.1559 190 29.5C190 26.8441 192 24 194 24H218V5ZM89.9999 277V323H151C174 274 202.5 206 214 125H213C194 175 143 236.5 89.9999 277ZM215.5 172C211.5 220 178.5 295 164 323H218V172H215.5ZM283.5 323H229V172H231.5C235.489 217.377 268.321 289.607 283.378 322.731L283.5 323ZM357 323H296C272.5 271 241.729 200.5 232.5 125H233.5C256 177.5 300.5 234.5 357 277V323Z" fill="black"/>
<path id="path2" d="M283.5 323H229V172H231.5C235.489 217.377 268.321 289.607 283.378 322.731M283.5 323L283.378 322.731M283.5 323C283.459 322.911 283.419 322.821 283.378 322.731M218 5C218 3 220.844 1.00001 223.5 1C226.156 0.999986 229 3 229 5V24H253C255 24 257 26.8441 257 29.5C257 32.1559 255 35 253 35H229V79.5C266 195.5 357 277 434 307V285C434 283 436.95 280 440 280C443.05 280 446 283 446 285V330C446 332 443.55 334.5 440.5 334.5C437.45 334.5 434 332 434 330V320L370 287V323H378C380 323 383 325.821 383 329C383 332 380 335 378 335H68.9999C67 335 63.5 332 63.5 329C63.5 325.821 67 323 68.9999 323H77.9999V287L13 320V330C13 332 10.0501 335 6.99999 335C3.9499 335 1 332 1 330V285C1 283 3.9499 280 6.99999 280C10.0501 280 13 283 13 285V307C86 280 186.5 189.5 217.5 79.5V35H194C192 35 190 32.1559 190 29.5C190 26.8441 192 24 194 24H218V5ZM89.9999 323V277C143 236.5 194 175 213 125H214C202.5 206 174 274 151 323H89.9999ZM164 323C178.5 295 211.5 220 215.5 172H218V323H164ZM296 323H357V277C300.5 234.5 256 177.5 233.5 125H232.5C241.729 200.5 272.5 271 296 323Z" stroke="black"/>
</svg>
