<svg viewBox="0 0 166 162" fill="none" xmlns="http://www.w3.org/2000/svg">
<path d="M14.9713 85.993C14.9713 85.993 39.4573 80.0073 56.2287 83.8269C70.6952 87.1216 80.5071 91.2085 91.8274 100.799C103.692 110.852 115.818 133.464 115.818 133.464" stroke="black" stroke-width="3"/>
<path d="M32.1934 58.7272C32.1934 58.7272 56.6794 52.7416 73.4507 56.5612C87.9172 59.8558 97.7291 63.9427 109.049 73.5336C120.914 83.5858 133.04 106.198 133.04 106.198" stroke="black" stroke-width="3"/>
<path d="M49.3905 28.1656C49.3905 28.1656 73.8765 22.18 90.6479 25.9996C105.114 29.2942 114.926 33.3811 126.247 42.972C138.111 53.0242 150.237 75.6363 150.237 75.6363" stroke="black" stroke-width="3"/>
</svg>
